Coordinates
version=1
nRows=13
nColumns=63
inDegrees=yes

Units are S.I. units (second, meters, Newtons, ...)
If the header above contains a line with 'inDegrees', this indicates whether rotational values are in degrees (yes) or radians (no).

endheader
time	pelvis_tilt	pelvis_list	pelvis_rotation	pelvis_tx	pelvis_ty	pelvis_tz	hip_flexion_r	hip_adduction_r	hip_rotation_r	knee_angle_r	knee_angle_r_beta	ankle_angle_r	subtalar_angle_r	mtp_angle_r	hip_flexion_l	hip_adduction_l	hip_rotation_l	knee_angle_l	knee_angle_l_beta	ankle_angle_l	subtalar_angle_l	mtp_angle_l	L5_S1_Flex_Ext	L5_S1_Lat_Bending	L5_S1_axial_rotation	L4_L5_Flex_Ext	L4_L5_Lat_Bending	L4_L5_axial_rotation	L3_L4_Flex_Ext	L3_L4_Lat_Bending	L3_L4_axial_rotation	L2_L3_Flex_Ext	L2_L3_Lat_Bending	L2_L3_axial_rotation	L1_L2_Flex_Ext	L1_L2_Lat_Bending	L1_L2_axial_rotation	L1_T12_Flex_Ext	L1_T12_Lat_Bending	L1_T12_axial_rotation	Abs_r3	Abs_r2	Abs_r1	Abs_t1	Abs_t2	neck_flexion	neck_bending	neck_rotation	arm_flex_r	arm_add_r	arm_rot_r	elbow_flex_r	pro_sup_r	wrist_flex_r	wrist_dev_r	arm_flex_l	arm_add_l	arm_rot_l	elbow_flex_l	pro_sup_l	wrist_flex_l	wrist_dev_l
0.000000	3.853393	-2.524444	97.800622	-0.121856	0.772398	0.641648	-0.264939	1.467977	-9.284051	5.779219	0.100866	24.754179	4.047835	0.000000	1.546145	-2.018181	3.280123	4.485887	0.078294	29.244411	9.362305	0.000000	0.177946	0.330691	-1.835506	0.330463	0.439819	-1.950225	0.292347	0.804042	-1.950225	0.203374	0.804042	-1.606068	0.165240	0.674345	-1.491348	0.101678	0.512241	-1.376629	1.271049	3.740844	-10.208533	0.000000	0.000000	13.311915	0.880052	5.824344	44.592026	-82.305716	97.065538	6.292157	6.275989	-14.991778	4.891273	-6.632712	-80.541042	53.813982	1.128646	28.165479	-23.954313	-13.091967
0.016667	4.241817	-2.318125	97.699616	-0.121897	0.773083	0.638019	-0.815844	1.977212	-8.890914	5.502227	0.096032	24.488409	3.886724	0.000000	0.827656	-2.473612	4.652498	3.720304	0.064932	28.661844	7.340389	0.000000	0.184469	0.383979	-1.808244	0.342578	0.510691	-1.921260	0.303065	0.933605	-1.921260	0.210830	0.933605	-1.582214	0.171298	0.783009	-1.469199	0.105406	0.594783	-1.356183	1.317646	4.343642	-10.056913	0.000000	0.000000	13.177297	1.059338	6.123656	44.566198	-82.697365	98.169882	6.153431	6.089891	-15.371519	5.765821	-6.284519	-80.521014	52.150567	1.411910	26.585800	-22.644832	-12.386340
0.033333	4.560262	-2.131018	97.738958	-0.122205	0.773653	0.635002	-1.255448	2.379148	-8.804045	5.373939	0.093793	24.384971	3.881827	0.000000	0.235544	-2.841927	6.031182	3.092215	0.053969	28.149671	5.527230	0.000000	0.190073	0.429885	-1.807504	0.352985	0.571748	-1.920472	0.312271	1.045223	-1.920472	0.217235	1.045223	-1.581566	0.176502	0.876622	-1.468597	0.108608	0.665893	-1.355628	1.357674	4.862950	-10.052792	0.000000	0.000000	12.937970	1.172557	6.401442	44.357809	-83.090721	98.792499	6.079012	5.996357	-15.642420	6.535111	-6.188411	-80.482514	50.702941	1.637177	25.778287	-21.653412	-11.595768
0.050000	4.813561	-1.962795	97.902499	-0.122745	0.774116	0.632549	-1.592850	2.681648	-8.991065	5.378964	0.093881	24.426090	4.018322	0.000000	-0.239644	-3.129264	7.401738	2.590918	0.045220	27.704780	3.917033	0.000000	0.194893	0.468710	-1.830261	0.361936	0.623384	-1.944652	0.320190	1.139621	-1.944652	0.222743	1.139621	-1.601478	0.180978	0.955793	-1.487087	0.111362	0.726032	-1.372695	1.392102	5.302140	-10.179360	0.000000	0.000000	12.610195	1.229779	6.653359	43.999182	-83.480789	99.001542	6.062571	5.983547	-15.813741	7.199625	-6.308104	-80.429522	49.461916	1.811138	25.666154	-20.946833	-10.734610
0.066667	5.006544	-1.813127	98.174090	-0.123486	0.774483	0.630615	-1.837149	2.892571	-9.419599	5.501914	0.096027	24.593996	4.281389	0.000000	-0.607361	-3.341760	8.749727	2.205711	0.038497	27.324055	2.504000	0.000000	0.199065	0.500750	-1.873493	0.369684	0.665998	-1.990586	0.327044	1.217524	-1.990586	0.227511	1.217524	-1.639307	0.184852	1.021130	-1.522213	0.113746	0.775662	-1.405120	1.421902	5.664585	-10.419807	0.000000	0.000000	12.210234	1.241072	6.875065	43.522642	-83.862572	98.865163	6.097781	6.039622	-15.894740	7.759844	-6.607315	-80.366014	48.418307	1.940481	26.172616	-20.491874	-9.817229
0.083333	5.144042	-1.681685	98.537583	-0.124395	0.774761	0.629153	-1.997443	3.019781	-10.057267	5.727399	0.099962	24.870915	4.656209	0.000000	-0.877060	-3.485552	10.060712	1.925890	0.033613	27.004384	1.282333	0.000000	0.202724	0.526304	-1.934179	0.376480	0.699985	-2.055065	0.333056	1.279656	-2.055065	0.231694	1.279656	-1.692406	0.188250	1.073240	-1.571520	0.115837	0.815245	-1.450634	1.448041	5.953660	-10.757321	0.000000	0.000000	11.754347	1.216506	7.062216	42.960513	-84.231076	98.451513	6.178315	6.152744	-15.894675	8.216249	-7.049761	-80.295971	47.562925	2.031895	27.220890	-20.255315	-8.857984
0.100000	5.230887	-1.568143	98.976828	-0.125439	0.774959	0.628117	-2.082830	3.071139	-10.871692	6.040030	0.105418	25.239075	5.127961	0.000000	-1.058194	-3.566777	11.320255	1.740754	0.030382	26.742653	0.246236	0.000000	0.206007	0.545671	-2.009294	0.382576	0.725742	-2.134875	0.338449	1.326744	-2.134875	0.235446	1.326744	-1.758132	0.191298	1.112732	-1.632552	0.117713	0.845244	-1.506971	1.471489	6.172737	-11.175092	0.000000	0.000000	11.258795	1.166149	7.210468	42.345119	-84.581303	97.828746	6.297846	6.311073	-15.822805	8.569321	-7.599159	-80.223368	46.886584	2.092070	28.734190	-20.203935	-7.871237
0.116667	5.271909	-1.472170	99.475677	-0.126585	0.775085	0.627460	-2.102411	3.054507	-11.830497	6.424417	0.112127	25.680703	5.681826	0.000000	-1.160216	-3.591572	12.513918	1.639599	0.028616	26.535748	-0.610089	0.000000	0.209049	0.559148	-2.095818	0.388225	0.743666	-2.226806	0.343447	1.359511	-2.226806	0.238922	1.359511	-1.833840	0.194123	1.140214	-1.702852	0.119451	0.866120	-1.571863	1.493217	6.325189	-11.656309	0.000000	0.000000	10.739838	1.100072	7.315478	41.708786	-84.908259	97.065013	6.450044	6.502770	-15.688388	8.819540	-8.219226	-80.152186	46.380098	2.127695	30.635732	-20.304514	-6.871347
0.133333	5.271939	-1.393438	100.017981	-0.127801	0.775149	0.627135	-2.065283	2.977746	-12.901303	6.865171	0.119820	26.178027	6.302983	0.000000	-1.192580	-3.566074	13.627262	1.611725	0.028130	26.380554	-1.292438	0.000000	0.211986	0.567033	-2.190726	0.393679	0.754154	-2.327647	0.348272	1.378684	-2.327647	0.242279	1.378684	-1.916885	0.196850	1.156294	-1.779965	0.121129	0.878334	-1.643045	1.514194	6.414391	-12.184162	0.000000	0.000000	10.213737	1.028344	7.372904	41.083837	-85.206947	96.228466	6.628584	6.715996	-15.500683	8.967389	-8.873679	-80.086402	46.034278	2.145459	32.848731	-20.523831	-5.872677
0.150000	5.235809	-1.331620	100.587591	-0.129054	0.775158	0.627097	-1.980546	2.848717	-14.051732	7.346904	0.128228	26.713274	6.976611	0.000000	-1.164738	-3.496420	14.645849	1.646427	0.028736	26.273960	-1.806610	0.000000	0.214953	0.569625	-2.290997	0.399190	0.757602	-2.434185	0.353147	1.384987	-2.434185	0.245670	1.384987	-2.004623	0.199606	1.161580	-1.861435	0.122824	0.882350	-1.718248	1.535390	6.443715	-12.741839	0.000000	0.000000	9.696753	0.961033	7.378401	40.502597	-85.472372	95.387259	6.827138	6.938911	-15.268947	9.013348	-9.526234	-80.029995	45.839939	2.152052	35.296402	-20.828666	-4.889587
0.166667	5.168350	-1.286387	101.168359	-0.130311	0.775122	0.627298	-1.857297	2.675284	-15.249407	7.854224	0.137082	27.268672	7.687891	0.000000	-1.086144	-3.388749	15.555242	1.733005	0.030247	26.212850	-2.158400	0.000000	0.218087	0.567223	-2.393608	0.405009	0.754406	-2.543209	0.358295	1.379145	-2.543209	0.249252	1.379145	-2.094407	0.202516	1.156680	-1.944807	0.124615	0.878628	-1.795206	1.557774	6.416535	-13.312531	0.000000	0.000000	9.205146	0.908209	7.327626	39.997389	-85.699537	94.609543	7.039378	7.159678	-15.002440	8.957899	-10.140610	-79.986942	45.787893	2.154163	37.901961	-21.185798	-3.936437
0.183333	5.063788	-1.248036	101.731037	-0.131487	0.775063	0.627687	-1.725990	2.458387	-16.421849	8.369664	0.146078	27.778990	8.370423	0.000000	-0.977719	-3.241321	16.301094	1.860672	0.032475	26.214098	-2.307622	0.000000	0.219580	0.556458	-2.488502	0.407781	0.740089	-2.644033	0.360747	1.352972	-2.644033	0.250958	1.352972	-2.177439	0.203902	1.134729	-2.021908	0.125468	0.861953	-1.866377	1.568435	6.294763	-13.840302	0.000000	0.000000	8.745601	0.974486	7.127747	39.522429	-85.870757	94.255495	7.242305	7.288387	-14.729874	8.754137	-10.624824	-79.996910	46.209649	2.153536	40.376048	-21.449679	-2.929335
0.200000	4.948250	-1.244195	102.289948	-0.132638	0.774961	0.628181	-1.568872	2.222468	-17.578826	8.847176	0.154412	28.267400	9.070372	0.000000	-0.816056	-3.076456	16.775519	2.024538	0.035335	26.290704	-2.115681	0.000000	0.224383	0.542435	-2.586276	0.416701	0.721439	-2.747918	0.368638	1.318877	-2.747918	0.256447	1.318877	-2.262991	0.208362	1.106134	-2.101349	0.128212	0.840232	-1.939707	1.602743	6.136138	-14.384090	0.000000	0.000000	8.413233	1.059579	6.862569	39.535243	-85.960389	94.496098	7.427726	7.362110	-14.416428	8.429500	-10.999648	-80.023881	46.721836	2.175219	42.759164	-21.775424	-2.051551
